# xmcd
#
# Track frame offsets:
#	150
#	12961
#	29938
#	49781
#	64254
#	84540
#	105033
#	123731
#	137994
#	151000
#	164654
#	178611
#	199279
#	216176
#	231816
#	261063
#
# Disc length: 3915 seconds
#
# Revision: 1
# Processed by: cddbd v1.5.2PL0 Copyright (c) Steve Scherf et al.
# Submitted via: audiograbber 1.83.01
#
DISCID=e40f4910
DTITLE=Pernilla Andersson - Ö-deluxe
DYEAR=2011
DGENRE=Country
TTITLE0=Dansa med  dig
TTITLE1=Dekpsalm
TTITLE2=Om ingen annan
TTITLE3=Som en ö
TTITLE4=Kasta sten feat. Dregen
TTITLE5=Spring din själ
TTITLE6=November
TTITLE7=Huvudet högt
TTITLE8=Friarna från Mexico feat. Swede Singers
TTITLE9=Att angöra en brygga
TTITLE10=Desperados
TTITLE11=Jag vet hur det känns
TTITLE12=Tråkig torsdag
TTITLE13=Saskia
TTITLE14=Johnny Cash and Nina P
TTITLE15=Data track
EXTD=
EXTT0=
EXTT1=
EXTT2=
EXTT3=
EXTT4=
EXTT5=
EXTT6=
EXTT7=
EXTT8=
EXTT9=
EXTT10=
EXTT11=
EXTT12=
EXTT13=
EXTT14=
EXTT15=Video on the Disc
PLAYORDER=
